<?xml version="1.0" encoding="utf-8"?>
<!-- Generator: Adobe Illustrator 24.3.0, SVG Export Plug-In . SVG Version: 6.00 Build 0)  -->
<svg version="1.1" id="Layer_1" xmlns="http://www.w3.org/2000/svg" xmlns:xlink="http://www.w3.org/1999/xlink" x="0px" y="0px"
	 viewBox="0 0 512 512" style="enable-background:new 0 0 512 512;" xml:space="preserve">
<style type="text/css">
	.st0{fill:#808285;}
</style>
<g>
	<polygon id="XMLID_3_" class="st0" points="166.97,195.28 166.97,256 134.3,195.28 97.83,195.28 97.83,232.44 131.77,291.62 
		131.77,255.44 165.15,316.72 201.33,316.72 201.33,195.28 	"/>
	<polygon id="XMLID_4_" class="st0" points="388.82,234.26 367.09,234.4 366.95,316.72 435.8,316.72 435.8,283.07 401.44,283.07 
		401.44,268.2 428.93,268.2 428.93,243.94 401.3,243.94 401.3,229.22 434.12,229.07 434.12,195.42 388.82,195.28 	"/>
	<polygon id="XMLID_5_" class="st0" points="209.46,195.28 209.32,316.72 243.68,316.72 243.68,195.28 	"/>
	<polygon id="XMLID_6_" class="st0" points="324.17,231.46 324.17,280.54 345.21,316.72 358.53,316.72 358.53,228.93 383.35,229.07 
		383.35,195.28 345.21,195.28 	"/>
	<path id="XMLID_10_" class="st0" d="M437.48,255.58l0.14,25.52l20.05,35.48h38.71l-25.52-43.75
		c15.71-12.76,15.71-24.12,15.71-32.82c0-25.8-21.74-44.74-47.68-44.74v33.94c11.36-0.28,16.13,2.94,15.85,13.32
		C454.59,253.06,452.49,255.72,437.48,255.58"/>
	<polygon id="XMLID_11_" class="st0" points="297.53,195.28 339.32,195.28 304.54,256.14 339.6,316.72 297.67,316.72 283.23,288.67 
		269.06,316.72 248.45,316.72 248.45,280.96 262.75,256.14 248.45,232.02 248.45,195.28 269.06,195.28 283.37,223.75 	"/>
	<path id="XMLID_14_" class="st0" d="M54.22,293.3L41.6,316.86H-0.05l70.4-121.72l70.12,121.58H99.1l-12.34-23.56H54.22V293.3z
		 M78.06,268.48l-7.43-13.46l-8.13,13.46H78.06z"/>
	<path id="XMLID_19_" class="st0" d="M502.97,313.92h1.26v-2.8h0.98c0.7,0,1.12,0,1.4,0.28c0.42,0.28,0.7,0.84,0.7,1.68v0.56v0.28
		v0.14l0,0h1.12v-0.14c0,0,0-0.14,0-0.42c0-0.14,0-0.42,0-0.56v-0.56c0-0.42-0.14-0.7-0.42-1.12c-0.28-0.42-0.7-0.56-1.26-0.7
		c0.42,0,0.7-0.14,0.98-0.28c0.42-0.28,0.7-0.7,0.7-1.4c0-0.84-0.42-1.54-1.12-1.82c-0.42-0.14-0.98-0.28-1.96-0.28h-2.52
		L502.97,313.92L502.97,313.92z M506.48,310.13c-0.28,0.14-0.7,0.14-1.12,0.14h-1.12v-2.52h1.12c0.7,0,1.12,0.14,1.54,0.28
		c0.28,0.14,0.42,0.56,0.42,0.98C507.18,309.57,507.04,309.99,506.48,310.13 M510.13,305.92c-1.26-1.26-2.8-1.82-4.49-1.82
		s-3.23,0.56-4.49,1.82c-1.26,1.26-1.82,2.8-1.82,4.49c0,1.82,0.56,3.23,1.82,4.49c1.26,1.26,2.8,1.82,4.49,1.82
		c1.82,0,3.23-0.56,4.49-1.82c1.26-1.26,1.82-2.8,1.82-4.49C511.95,308.73,511.39,307.19,510.13,305.92 M509.43,306.63
		c1.12,1.12,1.54,2.38,1.54,3.93c0,1.54-0.56,2.8-1.54,3.93c-1.12,1.12-2.38,1.68-3.93,1.68c-1.54,0-2.8-0.56-3.93-1.68
		c-1.12-1.12-1.54-2.38-1.54-3.93c0-1.54,0.56-2.8,1.54-3.93c1.12-1.12,2.38-1.68,3.93-1.68
		C507.04,304.94,508.3,305.5,509.43,306.63"/>
</g>
</svg>
