<svg xmlns="http://www.w3.org/2000/svg" width="202" height="51" stroke="none" stroke-linecap="round" stroke-linejoin="round" fill="#808285" fill-rule="nonzero"><path d="M65.2419.0575v24.9426L52.4804.0575h-14.246v15.2646l13.258 24.31v-14.862l13.0398 25.1724h14.1322V.0575zm86.6596 16.0126l-8.4881.057-.054 33.8154h26.894V36.1201h-13.4206v-6.1086h10.7367v-9.9654h-10.7921v-6.047l12.82-.061V.1151L151.9015.0575zM81.8391.0575l-.054 49.885h13.422V.0575zm44.8093 14.862v20.161l8.218 14.862h5.204V13.8799l9.696.0582V.0575h-14.9zm44.2617 9.9081l.054 10.4831 7.832 14.5743h15.1215l-9.9694-17.9716c6.1373-5.2414 6.1373-9.908 6.1373-13.4814 0-10.5983-8.4923-18.3786-18.6254-18.3786V13.995c4.4387-.115 6.3011 1.208 6.192 5.472-.0589 4.3252-.8795 5.418-6.742 5.3606M116.242.0575h16.3245l-13.5862 25 13.696 24.885h-16.38l-5.64-11.5224-5.536 11.5224h-8.05V35.2531l5.586-10.1956-5.586-9.908V.0575h8.05l5.5913 11.6947zM21.1983 40.3221L16.27 50H0L27.5 0l27.39 49.9426H38.73l-4.82-9.6782H21.1983v.0577zm9.313-10.1955l-2.9013-5.529-3.176 5.529h6.0773zm165.981 18.6656h.492v-1.1501h.3838c.2722 0 .4362 0 .5456.115.1641.115.2746.345.2746.69v.2298.1153.0579h0 .436v-.0579-.1721-.23-.23c0-.173-.054-.288-.164-.46s-.272-.2303-.492-.2882c.164 0 .2738-.0571.384-.1148.164-.115.272-.2874.272-.575 0-.345-.164-.6328-.436-.7478-.164-.0574-.384-.1151-.7669-.1151h-.9849l.0558 2.933h0zm1.3719-1.5567c-.1107.0576-.2749.0576-.439.0576h-.4369v-1.035h.4369c.2749 0 .439.0571.603.115.1081.0571.1641.23.1641.4022-.056.2301-.1107.4028-.3281.4602m1.4241-1.7294c-.492-.5175-1.0921-.7476-1.7522-.7476s-1.2636.2301-1.7557.7476-.7101 1.15-.7101 1.8444c0 .7476.218 1.3264.7101 1.8446s1.0954.7475 1.7557.7475c.7096 0 1.2602-.2301 1.7522-.7475s.712-1.15.712-1.8446-.2199-1.3224-.712-1.8444m-.272.292c.436.46.6.9772.6 1.6138s-.2177 1.1502-.6 1.6146c-.4385.4601-.9308.6902-1.536.6902s-1.0931-.2301-1.5359-.6902c-.4361-.4602-.6001-.9774-.6001-1.6146s.2185-1.1498.6001-1.6138c.439-.46.9314-.69 1.5359-.69s1.0938.2256 1.536.69"/></svg>