<?xml version="1.0" encoding="utf-8"?>
<!-- Generator: Adobe Illustrator 20.1.0, SVG Export Plug-In . SVG Version: 6.00 Build 0)  -->
<svg version="1.1" id="Layer_1" xmlns="http://www.w3.org/2000/svg" xmlns:xlink="http://www.w3.org/1999/xlink" x="0px"
	y="0px" viewBox="0 0 365 58" style="enable-background:new 0 0 365 58;" xml:space="preserve">
	<style type="text/css">
		.st0 {
			fill: #005A98;
		}

		.st1 {
			fill: #00ADEE;
		}

		.st2 {
			fill: url(#SVGID_1_);
		}
	</style>
	<g>
		<path class="st0" d="M28.3,11.3c12.7,0,16.4,3.9,16.4,14.8v4.6c0,10.8-3.7,14.7-16.4,14.7h-19v10.2H0V26.1
		c0-10.9,3.7-14.8,16.4-14.8H28.3z M35.3,26.4c0-6-1.6-7.1-8.2-7.1H16.7c-5.9,0-7.3,1.4-7.3,7v11.1h17.8c6.5,0,8.2-0.9,8.2-7.1V26.4
		z" />
		<path class="st0" d="M57.1,31.9v1.6c0,4.2,1.3,4.9,5.6,4.9h11.1v7.1H62.7c-10.8,0-15-3.9-15-13v-7.9c0-9.9,3.5-13.3,15.5-13.3h16.5
		c9.7,0,12.4,3.9,12.4,9.3v11.2H57.1z M82.7,21.4c0-2.3-1-2.8-3.8-2.8H63.3c-4.7,0-6.2,0.5-6.2,5.4v1.8h25.6V21.4z" />
		<path class="st0" d="M96,45.5V25.7c0-10.2,4.5-14.4,15.9-14.4h6.1v7.6h-5.8c-5.2,0-6.8,1.4-6.8,6.8v19.7H96z" />
		<path class="st0"
			d="M121.1,45.5v-36c0-6.9,3.6-9.2,10.9-9.2h10.9V7h-9.4c-2.3,0-3,0.6-3,2.8v1.5h12.4v7.6h-12.4v26.5H121.1z" />
		<path class="st0" d="M154.2,31.9v1.6c0,4.2,1.2,4.9,5.6,4.9h11v7.1h-11c-10.8,0-15-3.9-15-13v-7.9c0-9.9,3.5-13.3,15.4-13.3h16.4
		c9.7,0,12.4,3.9,12.4,9.3v11.2H154.2z M179.8,21.4c0-2.3-1-2.8-3.8-2.8h-15.6c-4.7,0-6.2,0.5-6.2,5.4v1.8h25.6V21.4z" />
		<path class="st0" d="M209.5,45.5c-12.6,0-16.3-3.9-16.3-14.7v-4.6c0-10.9,3.7-14.8,16.3-14.8h20.1v8.1h-19.8
		c-5.9,0-7.3,1.4-7.3,7.1v4c0,5.4,1.4,7.1,7.3,7.1h19.9v7.9H209.5z" />
		<polygon class="st0" points="235.9,45.5 235.9,18.9 231.1,18.9 231.1,11.3 235.9,11.3 235.9,1.7 245.4,1.7 245.4,11.3 256.1,11.3 
		256.1,18.9 245.4,18.9 245.4,45.5 	" />
		<path class="st0" d="M261.3,9.4c-2.3,0-3.2-0.9-3.2-2.9V2.8c0-2,0.9-2.8,3.2-2.8h3.1c2.4,0,3.3,0.8,3.3,2.8v3.7
		c0,2-0.9,2.9-3.3,2.9H261.3z M258.2,12.2h9.5v33.2h-9.5V12.2z" />
		<path class="st1" d="M355.5,45.5v-19c0-5.7-1.6-7.1-7.6-7.1h-10.2c-5.9,0-7.6,1.4-7.6,7.1v19h-9.4V26.1c0-10.9,3.7-14.8,16.3-14.8
		h11.4c12.7,0,16.4,3.9,16.4,14.8v19.3H355.5z" />
		<path class="st1" d="M288.6,45.5c-12.6,0-16.3-3.9-16.3-14.7v-4.6c0-10.9,3.7-14.8,16.3-14.8H300c12.7,0,16.4,3.9,16.4,14.9v4.5
		c0,10.8-3.7,14.7-16.4,14.7H288.6z M307,26.4c0-5.8-1.5-7.1-8.3-7.1h-8.9c-6.7,0-8.2,1.3-8.2,7.1v4c0,5.7,1.6,7,8.2,7h8.9
		c6.8,0,8.3-1.4,8.3-7V26.4z" />
		<linearGradient id="SVGID_1_" gradientUnits="userSpaceOnUse" x1="273.9504" y1="55.1649" x2="365" y2="55.1649">
			<stop offset="0" style="stop-color:#005A98" />
			<stop offset="1" style="stop-color:#00ADEE" />
		</linearGradient>
		<path class="st2"
			d="M303.1,58h1.5v-5.7h-1.5V58z M307.3,58h1.5v-5.7h-1.5V58z M305.2,58h1.5v-5.7h-1.5V58z M301,58h1.5v-5.7H301
		V58z M298.9,58h1.5v-5.7h-1.5V58z M315.6,58h1.5v-5.7h-1.5V58z M313.5,58h1.5v-5.7h-1.5V58z M296.9,58h1.5v-5.7h-1.5V58z M311.5,58
		h1.5v-5.7h-1.5V58z M309.4,58h1.5v-5.7h-1.5V58z M276,58h1.5v-5.7H276V58z M284.4,58h1.5v-5.7h-1.5V58z M282.3,58h1.5v-5.7h-1.5V58
		z M278.1,58h1.5v-5.7h-1.5V58z M317.7,58h1.5v-5.7h-1.5V58z M274,58h1.5v-5.7H274V58z M290.7,58h1.5v-5.7h-1.5V58z M286.5,58h1.5
		v-5.7h-1.5V58z M294.7,58h1.5v-5.7h-1.5V58z M292.8,58h1.5v-5.7h-1.5V58z M288.6,58h1.5v-5.7h-1.5V58z M280.2,58h1.5v-5.7h-1.5V58z
		M348.9,58h1.5v-5.7h-1.5V58z M351,58h1.5v-5.7H351V58z M342.7,58h1.5v-5.7h-1.5V58z M344.7,58h1.5v-5.7h-1.5V58z M346.8,58h1.5
		v-5.7h-1.5V58z M353.1,58h1.5v-5.7h-1.5V58z M363.5,52.3V58h1.5v-5.7H363.5z M361.4,58h1.5v-5.7h-1.5V58z M359.3,58h1.5v-5.7h-1.5
		V58z M357.3,58h1.5v-5.7h-1.5V58z M355.2,58h1.5v-5.7h-1.5V58z M324,58h1.5v-5.7H324V58z M326.1,58h1.5v-5.7h-1.5V58z M340.6,58
		h1.5v-5.7h-1.5V58z M321.9,58h1.5v-5.7h-1.5V58z M330.2,58h1.5v-5.7h-1.5V58z M319.8,58h1.5v-5.7h-1.5V58z M328.1,58h1.5v-5.7h-1.5
		V58z M336.5,58h1.5v-5.7h-1.5V58z M338.5,58h1.5v-5.7h-1.5V58z M334.3,58h1.5v-5.7h-1.5V58z M332.3,58h1.5v-5.7h-1.5V58z" />
	</g>
</svg>