<?xml version="1.0" standalone="no"?>
<!DOCTYPE svg PUBLIC "-//W3C//DTD SVG 20010904//EN" "http://www.w3.org/TR/2001/REC-SVG-20010904/DTD/svg10.dtd">
<svg version="1.0" xmlns="http://www.w3.org/2000/svg" width="543.000000pt" height="169.000000pt"
    viewBox="0 0 543.000000 169.000000" preserveAspectRatio="xMidYMid meet">

    <g transform="translate(0.000000,169.000000) scale(0.100000,-0.100000)" fill="#000000" stroke="none">
        <path d="M839 1547 c-68 -45 -90 -143 -46 -207 37 -55 72 -75 132 -75 153 0
213 198 86 282 -24 17 -49 23 -86 23 -37 0 -62 -6 -86 -23z" />
        <path d="M243 1406 c-22 -19 -28 -32 -28 -65 0 -39 6 -47 115 -156 l115 -115
-166 0 c-160 0 -166 -1 -187 -23 -33 -35 -30 -99 4 -126 24 -19 40 -21 185
-21 88 0 159 -3 159 -8 0 -4 -52 -59 -115 -122 -99 -99 -115 -119 -115 -147 0
-46 36 -85 82 -86 34 -1 48 10 195 150 240 228 253 244 253 295 0 42 -2 45
-203 245 -178 179 -206 203 -234 203 -19 0 -43 -10 -60 -24z" />
        <path d="M2490 1285 c0 -8 9 -15 20 -15 11 0 20 7 20 15 0 8 -9 15 -20 15 -11
0 -20 -7 -20 -15z" />
        <path d="M4780 1155 c0 -122 2 -145 15 -145 13 0 15 23 15 145 0 122 -2 145
-15 145 -13 0 -15 -23 -15 -145z" />
        <path d="M1910 1155 c0 -113 2 -135 15 -135 13 0 15 22 15 135 0 113 -2 135
-15 135 -13 0 -15 -22 -15 -135z" />
        <path d="M3410 1153 c0 -126 1 -133 20 -133 19 0 20 7 20 113 l1 112 61 -117
c51 -100 65 -118 84 -118 l24 0 0 135 c0 128 -1 135 -20 135 -18 0 -20 -8 -22
-107 l-3 -108 -54 107 c-48 92 -58 107 -83 110 l-28 5 0 -134z" />
        <path d="M4040 1275 c0 -8 7 -15 15 -15 8 0 15 7 15 15 0 8 -7 15 -15 15 -8 0
-15 -7 -15 -15z" />
        <path d="M2377 1263 c-4 -3 -7 -15 -7 -25 0 -11 -7 -18 -20 -18 -11 0 -20 -7
-20 -15 0 -8 9 -15 20 -15 18 0 20 -7 20 -66 0 -81 11 -104 50 -104 36 0 39
11 8 25 -20 9 -23 19 -26 78 -3 66 -3 67 23 67 16 0 25 6 25 15 0 9 -9 15 -25
15 -20 0 -25 5 -25 25 0 24 -10 32 -23 18z" />
        <path d="M2607 1263 c-4 -3 -7 -17 -7 -30 0 -20 -4 -22 -25 -17 -19 5 -25 2
-25 -10 0 -10 9 -16 25 -16 23 0 24 -3 27 -77 3 -70 5 -79 27 -89 24 -12 51
-9 51 6 0 4 -11 11 -25 14 -24 6 -25 10 -25 76 0 68 1 70 25 70 14 0 25 5 25
10 0 6 -11 10 -25 10 -21 0 -25 5 -25 30 0 29 -9 38 -23 23z" />
        <path d="M2967 1263 c-4 -3 -7 -17 -7 -30 0 -18 -5 -23 -25 -23 -14 0 -25 -4
-25 -10 0 -5 11 -10 25 -10 24 0 25 -2 25 -74 0 -81 15 -110 53 -104 29 4 33
26 5 30 -21 3 -23 8 -26 76 -3 71 -3 72 23 72 14 0 25 5 25 10 0 6 -11 10 -25
10 -21 0 -25 5 -25 30 0 29 -9 38 -23 23z" />
        <path d="M2000 1120 c0 -82 3 -100 15 -100 12 0 15 14 15 70 0 57 4 74 20 90
48 48 80 14 80 -86 0 -59 3 -74 15 -74 12 0 15 16 15 80 0 67 -3 83 -20 100
-24 24 -67 26 -92 3 -17 -15 -18 -15 -18 0 0 10 -7 17 -15 17 -12 0 -15 -18
-15 -100z" />
        <path d="M2221 1201 c-34 -34 -25 -60 32 -94 49 -31 22 -80 -34 -62 -15 5 -20
3 -17 -6 3 -8 22 -15 46 -17 34 -3 43 1 57 22 21 32 12 62 -24 80 -15 8 -33
21 -40 29 -18 22 12 49 46 41 19 -5 24 -3 21 7 -8 23 -64 23 -87 0z" />
        <path d="M2496 1168 c-3 -29 -6 -74 -6 -100 0 -41 3 -48 20 -48 19 0 20 7 20
100 0 78 -3 100 -14 100 -9 0 -15 -18 -20 -52z" />
        <path d="M3120 1208 c-14 -7 -33 -30 -43 -51 -34 -68 10 -142 84 -142 57 0 92
38 92 100 0 36 -5 52 -24 70 -30 30 -76 40 -109 23z m82 -35 c23 -21 24 -89 1
-115 -38 -42 -103 -10 -103 51 0 70 56 105 102 64z" />
        <path d="M2720 1132 c0 -63 4 -82 18 -94 27 -25 55 -29 85 -13 15 7 27 10 27
4 0 -5 7 -9 15 -9 11 0 15 11 15 43 0 23 3 66 6 95 6 48 5 52 -15 52 -19 0
-21 -5 -21 -69 0 -76 -13 -101 -54 -101 -37 0 -46 19 -46 97 0 58 -3 73 -15
73 -12 0 -15 -15 -15 -78z" />
        <path d="M3697 1203 c-16 -15 -5 -21 28 -16 39 6 65 -9 65 -38 0 -15 -8 -19
-40 -19 -43 0 -90 -34 -90 -65 0 -43 82 -73 110 -40 7 8 16 15 21 15 5 0 9 -7
9 -15 0 -8 5 -15 10 -15 6 0 10 34 10 83 0 69 -3 87 -18 100 -18 17 -92 24
-105 10z m93 -118 c0 -34 -41 -61 -69 -45 -44 23 -16 69 42 70 22 0 27 -4 27
-25z" />
        <path d="M3907 1199 c-52 -30 -58 -121 -10 -165 30 -28 103 -35 103 -9 0 11
-7 13 -29 9 -49 -10 -78 31 -72 101 3 30 41 57 73 53 19 -3 28 0 28 9 0 16
-66 17 -93 2z" />
        <path d="M4040 1110 c0 -82 3 -100 15 -100 12 0 15 18 15 100 0 82 -3 100 -15
100 -12 0 -15 -18 -15 -100z" />
        <path d="M4146 1184 c-61 -61 -20 -174 64 -174 70 0 113 64 90 135 -23 68
-104 89 -154 39z m104 -14 c43 -43 15 -140 -40 -140 -33 0 -60 35 -60 80 0 45
27 80 60 80 11 0 29 -9 40 -20z" />
        <path d="M4350 1110 c0 -82 3 -100 15 -100 12 0 15 14 15 65 0 57 3 69 25 90
28 29 34 30 60 11 16 -11 20 -30 23 -90 3 -59 8 -76 19 -76 24 0 14 151 -11
179 -23 25 -63 27 -94 5 -20 -14 -22 -14 -22 0 0 9 -7 16 -15 16 -12 0 -15
-18 -15 -100z" />
        <path d="M4598 1199 c-29 -16 -21 -28 13 -19 32 9 59 4 71 -14 16 -23 6 -34
-37 -39 -52 -5 -85 -30 -85 -63 0 -46 61 -70 111 -44 13 7 19 7 19 0 0 -5 7
-10 15 -10 12 0 15 15 15 75 0 67 -3 79 -25 100 -25 26 -67 32 -97 14z m92
-113 c0 -47 -46 -71 -84 -43 -33 24 4 65 62 66 17 1 22 -5 22 -23z" />
        <path d="M1961 903 c-55 -27 -73 -66 -69 -151 3 -66 6 -75 36 -104 28 -29 39
-33 101 -36 86 -5 111 7 111 53 l0 34 -35 -20 c-72 -43 -140 0 -140 87 0 31 7
49 23 67 33 36 66 39 118 11 l44 -23 0 38 c0 35 -3 39 -39 49 -54 17 -110 14
-150 -5z" />
        <path d="M2850 875 l0 -44 -48 6 c-86 10 -129 -40 -120 -139 8 -82 64 -118
131 -84 15 8 27 11 27 5 0 -5 16 -9 35 -9 l35 0 0 155 0 155 -30 0 c-29 0 -30
-2 -30 -45z m-10 -149 c0 -57 -2 -64 -22 -69 -35 -10 -68 18 -68 56 0 46 25
77 61 77 l29 0 0 -64z" />
        <path d="M2990 895 c0 -22 4 -25 35 -25 31 0 35 3 35 25 0 22 -4 25 -35 25
-31 0 -35 -3 -35 -25z" />
        <path d="M4780 868 c0 -24 -3 -94 -7 -155 l-6 -113 36 0 37 0 0 155 0 155 -30
0 c-29 0 -30 -2 -30 -42z" />
        <path d="M2210 811 c0 -29 0 -29 41 -19 28 8 47 7 65 0 37 -17 29 -30 -23 -38
-51 -7 -83 -20 -95 -38 -14 -21 -8 -73 10 -89 21 -19 83 -22 113 -7 13 7 19 7
19 0 0 -5 16 -10 35 -10 l35 0 0 95 c0 126 -8 135 -120 135 l-80 0 0 -29z
m130 -121 c0 -23 -5 -31 -25 -36 -34 -8 -55 1 -55 26 0 21 28 38 63 39 12 1
17 -7 17 -29z" />
        <path d="M2490 793 c0 -27 -3 -78 -7 -115 l-6 -68 36 0 36 0 3 78 3 77 48 3
c46 3 47 4 47 38 0 38 -6 40 -57 19 -19 -8 -37 -15 -39 -15 -2 0 -4 7 -4 15 0
10 -10 15 -30 15 -29 0 -30 -1 -30 -47z" />
        <path d="M3174 824 c-39 -19 -54 -51 -54 -112 1 -73 42 -112 120 -112 82 0
119 38 120 121 0 42 -5 60 -21 78 -40 43 -108 53 -165 25z m106 -53 c5 -11 10
-34 10 -51 0 -47 -16 -70 -50 -70 -34 0 -50 23 -50 70 0 47 16 70 50 70 19 0
33 -7 40 -19z" />
        <path d="M3728 833 c-23 -3 -28 -10 -28 -32 0 -28 1 -28 38 -18 44 12 92 3 92
-17 0 -9 -19 -16 -56 -21 -67 -8 -94 -31 -94 -79 0 -25 7 -39 22 -50 26 -19
80 -21 111 -5 16 9 22 9 25 0 2 -6 17 -11 33 -11 l29 0 0 98 c0 82 -3 102 -18
115 -19 17 -106 29 -154 20z m112 -147 c0 -31 -51 -56 -75 -36 -32 27 -6 59
48 60 22 0 27 -4 27 -24z" />
        <path d="M4036 830 c-41 -8 -76 -39 -76 -69 0 -31 28 -56 81 -71 59 -17 73
-36 35 -46 -23 -5 -44 -1 -98 21 -15 6 -18 2 -18 -23 0 -35 16 -42 101 -42 72
0 109 25 109 75 0 41 -13 52 -79 66 -40 8 -51 15 -49 27 4 18 54 23 96 8 19
-6 22 -4 22 19 0 14 -6 27 -12 29 -32 10 -76 12 -112 6z" />
        <path d="M2990 720 l0 -110 35 0 35 0 0 110 0 110 -35 0 -35 0 0 -110z" />
        <path d="M3400 823 c0 -5 17 -53 38 -108 l38 -100 45 -3 45 -3 21 58 c11 32
30 82 42 111 l21 52 -38 0 -38 0 -24 -75 c-13 -42 -27 -72 -31 -68 -3 5 -16
38 -29 76 -21 65 -22 67 -56 67 -19 0 -34 -3 -34 -7z" />
        <path d="M4244 796 c-29 -29 -34 -41 -34 -81 0 -40 5 -52 34 -81 34 -34 37
-35 103 -32 l68 3 3 32 3 32 -35 -14 c-47 -20 -53 -19 -81 10 -47 46 -19 119
45 117 18 0 38 -6 43 -11 18 -18 27 -12 27 18 0 35 -13 41 -87 41 -49 0 -59
-4 -89 -34z" />
        <path d="M4470 743 c0 -50 6 -99 13 -113 18 -35 66 -47 108 -26 21 11 35 13
37 6 2 -5 19 -10 38 -10 l34 0 0 115 0 115 -35 0 -35 0 0 -84 c0 -88 -4 -96
-50 -96 -29 0 -40 31 -40 109 l0 71 -35 0 -35 0 0 -87z" />
        <path d="M4933 824 c-7 -3 -13 -17 -13 -31 0 -23 3 -24 33 -17 41 9 77 7 93
-7 20 -17 7 -29 -30 -29 -100 0 -150 -67 -91 -125 28 -29 63 -32 105 -10 17 9
30 11 30 5 0 -5 16 -10 35 -10 l35 0 0 89 c0 121 -11 135 -111 138 -41 1 -80
0 -86 -3z m127 -149 c0 -35 -71 -52 -84 -19 -9 22 10 42 42 46 36 5 42 1 42
-27z" />
        <path d="M5200 710 l0 -110 35 0 35 0 0 74 c0 80 4 86 61 86 26 0 29 4 29 30
0 25 -4 30 -23 30 -12 0 -33 -7 -45 -16 -20 -14 -22 -14 -22 0 0 12 -10 16
-35 16 l-35 0 0 -110z" />
        <path d="M875 741 c-11 -5 -108 -97 -214 -205 -179 -179 -195 -198 -195 -230
0 -49 36 -86 82 -86 31 0 50 14 153 111 l119 111 0 -160 0 -160 31 -26 c17
-14 39 -26 50 -26 28 0 75 26 83 45 3 9 6 86 6 171 0 85 3 154 8 154 4 0 52
-45 107 -101 112 -114 147 -134 194 -118 38 13 65 60 56 98 -4 17 -74 95 -203
224 -202 202 -227 220 -277 198z" />
    </g>
</svg>